<?xml version="1.0" encoding="utf-8"?>
<svg version="1.1" x="0px" y="0px" viewBox="20 30.299999237060547 59.91899871826172 39.400001525878906" style="enable-background:new 0 0 100 100;" xmlns="http://www.w3.org/2000/svg">
  <path d="M79.3,37.8c-0.4-0.1-0.9,0-1.1,0.4l-4.6,6.5H51.1c-1.8-2-4-3.5-6.4-4.4v-3.2H58c0.6,0,1-0.4,1-1s-0.4-1-1-1H44.6V35  c0-2.6-2.1-4.7-4.7-4.7s-4.7,2.1-4.7,4.7v0.1H21.9c-0.6,0-1,0.4-1,1s0.4,1,1,1h13.3V40C27.6,42.6,20,51.3,20,58.7  c0,3.4,2.9,6.2,6.4,6.2h1.9v2.8h-4c-0.6,0-1,0.4-1,1s0.4,1,1,1h26c0.6,0,1-0.4,1-1s-0.4-1-1-1h-4v-2.8h1.4c2.6,0,4.9-1.5,5.9-3.8  c0.6-1.3,0.9-2.7,1.1-4.2l24.3-3c0.5-0.1,0.9-0.5,0.9-1V38.8C80,38.3,79.7,38,79.3,37.8z M37.2,35c0-1.5,1.2-2.7,2.7-2.7  s2.7,1.2,2.7,2.7v0.1h-5.5V35z M37.2,37.1h5.5v2.6c-1.1-0.2-2.2-0.4-3.4-0.4c-0.7,0-1.4,0.1-2.1,0.2V37.1z M29.9,45.2H36  c3.1,0,5.6,2.5,5.6,5.6c0,3.1-2.5,5.6-5.6,5.6H22.3C23.1,52.4,26.2,48.2,29.9,45.2z M44.4,67.7H30.3v-2.8h14.1V67.7z M78,52.1  l-24.2,3c-0.5,0.1-0.8,0.4-0.9,0.9c-0.1,1.5-0.5,3-1,4.4c-0.7,1.6-2.2,2.6-4,2.6H26.4C24,62.9,22,61,22,58.6c0-0.1,0-0.1,0-0.2h14  c4.2,0,7.6-3.4,7.6-7.6s-3.4-7.6-7.6-7.6h-3.1c2.1-1.2,4.3-1.9,6.4-1.9c4.1,0,8,1.8,10.6,5c0.2,0.2,0.5,0.4,0.8,0.4h23.5  c0.3,0,0.6-0.2,0.8-0.4l3.1-4.3V52.1z"/>
</svg>